<svg xmlns="http://www.w3.org/2000/svg" xmlns:xlink="http://www.w3.org/1999/xlink" width="0" height="0">
    <symbol id="arrow-right" viewBox="0 0 32 32">
        <path d="M24.291,14.276L14.705,4.69c-0.878-0.878-2.317-0.878-3.195,0l-0.8,0.8c-0.878,0.877-0.878,2.316,0,3.194  L18.024,16l-7.315,7.315c-0.878,0.878-0.878,2.317,0,3.194l0.8,0.8c0.878,0.879,2.317,0.879,3.195,0l9.586-9.587  c0.472-0.471,0.682-1.103,0.647-1.723C24.973,15.38,24.763,14.748,24.291,14.276z" fill="#515151"/>
    </symbol>
    <symbol id="profile" viewBox="0 0 563.43 563.43">
        <path d="M280.79,314.559c83.266,0,150.803-67.538,150.803-150.803S364.055,13.415,280.79,13.415S129.987,80.953,129.987,163.756 S197.524,314.559,280.79,314.559z M280.79,52.735c61.061,0,111.021,49.959,111.021,111.021S341.851,274.776,280.79,274.776 s-111.021-49.959-111.021-111.021S219.728,52.735,280.79,52.735z"/>
        <path d="M19.891,550.015h523.648c11.102,0,19.891-8.789,19.891-19.891c0-104.082-84.653-189.198-189.198-189.198H189.198 C85.116,340.926,0,425.579,0,530.124C0,541.226,8.789,550.015,19.891,550.015z M189.198,380.708h185.034 c75.864,0,138.313,56.436,148.028,129.524H41.17C50.884,437.607,113.334,380.708,189.198,380.708z"/>
    </symbol>
    <symbol id="search" viewBox="0 0 250.313 250.313">
        <path d="M244.186,214.604l-54.379-54.378c-0.289-0.289-0.628-0.491-0.93-0.76 c10.7-16.231,16.945-35.66,16.945-56.554C205.822,46.075,159.747,0,102.911,0S0,46.075,0,102.911 c0,56.835,46.074,102.911,102.91,102.911c20.895,0,40.323-6.245,56.554-16.945c0.269,0.301,0.47,0.64,0.759,0.929l54.38,54.38 c8.169,8.168,21.413,8.168,29.583,0C252.354,236.017,252.354,222.773,244.186,214.604z M102.911,170.146 c-37.134,0-67.236-30.102-67.236-67.235c0-37.134,30.103-67.236,67.236-67.236c37.132,0,67.235,30.103,67.235,67.236 C170.146,140.044,140.043,170.146,102.911,170.146z"/>
    </symbol>
    <symbol id="email" viewBox="0 0 576.504 576.504">
        <path d="M7.956,447.371c-0.408,0.814-1.428,1.225-3.06,1.225H3.06c-2.04-1.225-3.06-2.65-3.06-4.285 V200.123c0-2.04,0.816-3.468,2.448-4.284c1.632-0.408,3.264-0.408,4.896,0l162.792,93.024c1.632,0.814,2.448,2.041,2.448,3.672 c0,2.041-0.612,3.264-1.836,3.672L7.956,447.371z M555.084,514.691c1.225,1.633,1.633,3.264,1.225,4.896 c-1.225,2.039-2.854,3.063-4.896,3.063H18.972c-2.856,0-5.916-1.021-9.18-3.063c-1.632-0.816-2.448-2.041-2.448-3.672 c0-1.633,0.612-2.857,1.836-3.672l207.468-192.781c1.632-1.631,3.468-1.836,5.508-0.611l55.08,31.215 c7.752,4.484,15.707,4.484,23.867,0l62.424-36.723c2.449-1.633,4.285-1.428,5.512,0.611L555.084,514.691z M574.057,192.167 c1.631,0.816,2.447,2.244,2.447,4.284v258.263c0,2.041-1.021,3.469-3.063,4.285c-0.404,0.408-1.02,0.611-1.836,0.611 c-1.223,0-2.445-0.611-3.672-1.836L413.1,290.699c-1.223-1.227-1.631-2.448-1.223-3.672c0-1.632,0.609-2.856,1.836-3.672 l155.447-91.188C570.385,190.943,572.016,190.943,574.057,192.167z M556.92,53.855c5.713,0,10.404,1.836,14.076,5.508 s5.508,8.16,5.508,13.464v58.752c0,2.856-1.428,4.284-4.283,4.284c-2.449,0.408-4.693,1.428-6.732,3.06L291.313,299.878 c-0.408,0.408-1.225,0.613-2.449,0.613s-2.04-0.205-2.446-0.613L3.672,138.923C1.224,137.291,0,135.659,0,134.027v-61.2 c0-5.304,1.836-9.792,5.508-13.464s8.16-5.508,13.464-5.508H556.92L556.92,53.855z"/>
    </symbol>
    <symbol id="phone" viewBox="0 0 512 512">
        <path d="M492.438,397.75l-2.375-7.156c-5.625-16.719-24.063-34.156-41-38.75l-62.688-17.125c-17-4.625-41.25,1.594-53.688,14.031 L310,371.438c-82.453-22.281-147.109-86.938-169.359-169.375l22.688-22.688c12.438-12.438,18.656-36.656,14.031-53.656L160.266,63 c-4.625-16.969-22.094-35.406-38.781-40.969l-7.156-2.406c-16.719-5.563-40.563,0.063-53,12.5L27.391,66.094 c-6.063,6.031-9.938,23.281-9.938,23.344C16.266,197.188,58.516,301,134.734,377.219c76.031,76.031,179.453,118.219,286.891,117.313 c0.563,0,18.313-3.813,24.375-9.844l33.938-33.938C492.375,438.313,498,414.469,492.438,397.75z"/>
    </symbol>
    <symbol id="instagram" viewBox="150 203 200 253">
        <path d="M378.7,247.7c-3.3-8.5-7.7-15.7-14.9-22.9c-7.2-7.2-14.4-11.6-22.9-14.9   c-8.2-3.2-17.7-5.4-31.4-6c-13.8-0.6-18.2-0.8-53.4-0.8s-39.6,0.1-53.4,0.8c-13.8,0.6-23.2,2.8-31.4,6c-8.5,3.3-15.7,7.7-22.9,14.9   c-7.2,7.2-11.6,14.4-14.9,22.9c-3.2,8.2-5.4,17.7-6,31.4c-0.6,13.8-0.8,18.2-0.8,53.4c0,35.2,0.1,39.6,0.8,53.4   c0.6,13.8,2.8,23.2,6,31.4c3.3,8.5,7.7,15.7,14.9,22.9c7.2,7.2,14.4,11.6,22.9,14.9c8.2,3.2,17.7,5.4,31.4,6   c13.8,0.6,18.2,0.8,53.4,0.8s39.6-0.1,53.4-0.8c13.8-0.6,23.2-2.8,31.4-6c8.5-3.3,15.7-7.7,22.9-14.9c7.2-7.2,11.6-14.4,14.9-22.9   c3.2-8.2,5.4-17.7,6-31.4c0.6-13.8,0.8-18.2,0.8-53.4s-0.1-39.6-0.8-53.4C384.1,265.3,381.9,255.9,378.7,247.7z M361.4,384.8   c-0.6,12.6-2.7,19.5-4.5,24c-2.3,6-5.2,10.4-9.7,14.9c-4.5,4.5-8.8,7.3-14.9,9.7c-4.6,1.8-11.4,3.9-24,4.5   c-13.7,0.6-17.7,0.8-52.3,0.8s-38.7-0.1-52.3-0.8c-12.6-0.6-19.5-2.7-24-4.5c-6-2.3-10.4-5.2-14.9-9.7c-4.5-4.5-7.3-8.8-9.7-14.9   c-1.8-4.6-3.9-11.4-4.5-24c-0.6-13.7-0.8-17.8-0.8-52.3s0.1-38.7,0.8-52.3c0.6-12.6,2.7-19.5,4.5-24c2.3-6,5.2-10.4,9.7-14.9   c4.5-4.5,8.8-7.3,14.9-9.7c4.6-1.8,11.4-3.9,24-4.5c13.7-0.6,17.8-0.8,52.3-0.8s38.7,0.1,52.3,0.8c12.6,0.6,19.5,2.7,24,4.5   c6,2.3,10.4,5.2,14.9,9.7c4.5,4.5,7.3,8.8,9.7,14.9c1.8,4.6,3.9,11.4,4.5,24c0.6,13.7,0.8,17.8,0.8,52.3S362,371.2,361.4,384.8z"/>
        <path d="M256,266c-36.7,0-66.5,29.8-66.5,66.5c0,36.7,29.8,66.5,66.5,66.5s66.5-29.8,66.5-66.5   C322.5,295.8,292.7,266,256,266z M256,375.7c-23.8,0-43.2-19.3-43.2-43.2c0-23.8,19.3-43.2,43.2-43.2s43.2,19.3,43.2,43.2   C299.2,356.3,279.8,375.7,256,375.7z"/>
        <circle cx="325.1" cy="263.4"  r="15.5"/>
    </symbol>
    <symbol id="youtube" viewBox="0 20 128 108">
        <path d="M126.72,38.224c0,0-1.252-8.883-5.088-12.794    c-4.868-5.136-10.324-5.16-12.824-5.458c-17.912-1.305-44.78-1.305-44.78-1.305h-0.056c0,0-26.868,0-44.78,1.305    c-2.504,0.298-7.956,0.322-12.828,5.458C2.528,29.342,1.28,38.224,1.28,38.224S0,48.658,0,59.087v9.781    c0,10.433,1.28,20.863,1.28,20.863s1.248,8.883,5.084,12.794c4.872,5.136,11.268,4.975,14.116,5.511    c10.24,0.991,43.52,1.297,43.52,1.297s26.896-0.04,44.808-1.345c2.5-0.302,7.956-0.326,12.824-5.462    c3.836-3.912,5.088-12.794,5.088-12.794S128,79.302,128,68.868v-9.781C128,48.658,126.72,38.224,126.72,38.224z M50.784,80.72    L50.78,44.501l34.584,18.172L50.784,80.72z"/>
    </symbol>
    <symbol id="eureka" viewBox="0 0 12.805 17.458">
        <path d="M6.393,0C2.863,0.006-0.004,2.882,0,6.412c0.002,0.73,0.127,1.434,0.355,2.089 c0.399,1.145,1.114,2.143,2.04,2.888c0.841,0.693,1.425,1.685,1.589,2.812h0.002c0.008,0.083,0.065,0.151,0.139,0.179 c0.002,0.001,0.006,0.001,0.008,0.002c0.006,0.002,0.012,0.003,0.015,0.004c0.579,0.163,1.182,0.266,1.803,0.3 c0.154,0.008,0.309,0.013,0.465,0.013c0.152,0,0.305-0.006,0.455-0.015c0.625-0.034,1.232-0.138,1.814-0.305h0.003v-0.001 c0.069-0.023,0.126-0.083,0.144-0.156c0-0.012,0.002-0.022,0.002-0.032c0.154-1.069,0.689-2.02,1.461-2.707 c0.096-0.085,0.195-0.168,0.301-0.243c0.843-0.732,1.492-1.682,1.863-2.758c0.227-0.656,0.348-1.359,0.346-2.089 C12.799,2.862,9.922-0.006,6.393,0 M9.084,9.993c-0.846,0.732-1.498,1.681-1.867,2.76c-0.063,0.008-0.125,0.015-0.188,0.021 c-0.201,0.021-0.408,0.031-0.615,0.031c-0.213,0-0.424-0.01-0.631-0.031c-0.06-0.006-0.123-0.013-0.183-0.02 c-0.401-1.145-1.116-2.144-2.041-2.889V9.862C2.563,9.042,1.924,7.799,1.92,6.409C1.916,3.938,3.924,1.924,6.396,1.92 c2.471-0.005,4.486,2.003,4.488,4.474c0.004,1.333-0.578,2.532-1.504,3.356C9.285,9.834,9.188,9.917,9.084,9.993"/>
        <path d="M8.588,5.672c-0.406,0-0.734,0.314-0.766,0.711V6.4c0,0.023,0,0.048-0.002,0.07 v0.002C7.783,7.222,7.162,7.82,6.404,7.82C5.639,7.822,5.01,7.211,4.984,6.449V6.433C4.977,6.017,4.635,5.682,4.215,5.684 c-0.422,0-0.766,0.344-0.766,0.768C3.475,8.06,4.795,9.359,6.408,9.357c1.6-0.004,2.902-1.282,2.949-2.872V6.473V6.425 C9.35,6.006,9.008,5.671,8.588,5.672"/>
        <path d="M8.715,15.089c-0.006,0-0.012,0-0.016,0.002c0,0-0.006,0.001-0.006,0.002 c-0.583,0.151-1.182,0.248-1.801,0.281c-0.157,0.008-0.316,0.013-0.473,0.013c-0.164,0-0.328-0.003-0.488-0.012 c-0.621-0.031-1.225-0.127-1.805-0.28c-0.002,0-0.006-0.002-0.01-0.002c-0.006-0.001-0.009-0.002-0.015-0.002 c-0.039,0-0.071,0.031-0.076,0.067c0,0.009,0,0.017,0.002,0.025v0.001c0.042,0.939,0.628,1.737,1.451,2.085 c0.287,0.122,0.601,0.188,0.933,0.188c0.332-0.001,0.648-0.07,0.938-0.193c0.822-0.353,1.402-1.153,1.439-2.093 c0.002-0.003,0.002-0.005,0.002-0.007v-0.003C8.789,15.123,8.756,15.089,8.715,15.089"/>
    </symbol>
</svg>
